<?xml version="1.0" encoding="UTF-8"?>
<svg xmlns="http://www.w3.org/2000/svg" xmlns:xlink="http://www.w3.org/1999/xlink" width="375pt" height="374.999991pt" viewBox="0 0 375 374.999991" version="1.2">
<defs>
<clipPath id="clip1">
  <path d="M 32 149 L 220 149 L 220 344.71875 L 32 344.71875 Z M 32 149 "/>
</clipPath>
</defs>
<g id="surface1">
<path style=" stroke:none;fill-rule:nonzero;fill:rgb(100%,100%,100%);fill-opacity:1;" d="M 312.042969 78.21875 C 320.015625 78.21875 326.515625 71.714844 326.515625 63.726562 C 326.515625 55.738281 320.015625 49.238281 312.042969 49.238281 C 304.050781 49.238281 297.539062 55.738281 297.539062 63.726562 C 297.539062 71.714844 304.050781 78.21875 312.042969 78.21875 Z M 312.042969 56.28125 C 316.140625 56.28125 319.476562 59.617188 319.476562 63.722656 C 319.476562 67.832031 316.140625 71.171875 312.042969 71.171875 C 307.925781 71.171875 304.582031 67.828125 304.582031 63.722656 C 304.582031 59.617188 307.925781 56.28125 312.042969 56.28125 Z M 312.042969 56.28125 "/>
<path style=" stroke:none;fill-rule:nonzero;fill:rgb(100%,100%,100%);fill-opacity:1;" d="M 279.832031 78.21875 C 287.824219 78.21875 294.324219 71.714844 294.324219 63.726562 C 294.324219 55.738281 287.824219 49.238281 279.832031 49.238281 C 271.847656 49.238281 265.347656 55.738281 265.347656 63.726562 C 265.347656 71.714844 271.84375 78.21875 279.832031 78.21875 Z M 279.832031 56.28125 C 283.9375 56.28125 287.285156 59.617188 287.285156 63.722656 C 287.285156 67.832031 283.9375 71.171875 279.832031 71.171875 C 275.726562 71.171875 272.390625 67.828125 272.390625 63.722656 C 272.390625 59.617188 275.726562 56.28125 279.832031 56.28125 Z M 279.832031 56.28125 "/>
<path style=" stroke:none;fill-rule:nonzero;fill:rgb(100%,100%,100%);fill-opacity:1;" d="M 355.1875 89.015625 L 129.054688 89.015625 C 127.109375 89.015625 125.535156 90.59375 125.535156 92.539062 L 125.535156 248.863281 C 125.535156 250.808594 127.109375 252.386719 129.054688 252.386719 L 355.1875 252.386719 C 357.132812 252.386719 358.710938 250.808594 358.710938 248.863281 L 358.710938 92.539062 C 358.710938 90.59375 357.132812 89.015625 355.1875 89.015625 Z M 351.667969 245.335938 L 132.574219 245.335938 L 132.574219 96.0625 L 351.667969 96.0625 Z M 351.667969 245.335938 "/>
<path style=" stroke:none;fill-rule:nonzero;fill:rgb(100%,100%,100%);fill-opacity:1;" d="M 363.429688 31.402344 L 120.835938 31.402344 C 114.363281 31.402344 109.097656 36.675781 109.097656 43.160156 L 109.097656 257.082031 C 109.097656 263.5625 114.363281 268.835938 120.835938 268.835938 L 363.429688 268.835938 C 369.902344 268.835938 375.171875 263.5625 375.171875 257.082031 L 375.171875 43.160156 C 375.171875 36.675781 369.902344 31.402344 363.429688 31.402344 Z M 368.132812 257.082031 C 368.132812 259.683594 366.027344 261.792969 363.429688 261.792969 L 120.835938 261.792969 C 118.246094 261.792969 116.136719 259.683594 116.136719 257.082031 L 116.136719 43.160156 C 116.136719 40.5625 118.246094 38.449219 120.835938 38.449219 L 363.429688 38.449219 C 366.027344 38.449219 368.132812 40.5625 368.132812 43.160156 Z M 368.132812 257.082031 "/>
<path style=" stroke:none;fill-rule:nonzero;fill:rgb(100%,100%,100%);fill-opacity:1;" d="M 344.246094 49.234375 C 336.25 49.234375 329.742188 55.734375 329.742188 63.722656 C 329.742188 71.714844 336.25 78.214844 344.246094 78.214844 C 352.21875 78.214844 358.710938 71.710938 358.710938 63.722656 C 358.710938 55.734375 352.21875 49.234375 344.246094 49.234375 Z M 344.246094 71.175781 C 340.128906 71.175781 336.78125 67.832031 336.78125 63.726562 C 336.78125 59.625 340.128906 56.285156 344.246094 56.285156 C 348.332031 56.285156 351.667969 59.625 351.667969 63.726562 C 351.667969 67.832031 348.332031 71.175781 344.246094 71.175781 Z M 344.246094 71.175781 "/>
<path style=" stroke:none;fill-rule:nonzero;fill:rgb(100%,100%,100%);fill-opacity:1;" d="M 239.84375 147.261719 L 249.324219 152.757812 C 249.191406 154.109375 249.113281 155.40625 249.113281 156.679688 C 249.113281 159.054688 249.335938 161.421875 249.765625 163.84375 L 241.332031 168.707031 C 237.804688 170.761719 236.601562 175.3125 238.648438 178.824219 L 246.917969 193.152344 C 248.871094 196.597656 253.746094 197.84375 257.035156 195.886719 L 266.523438 190.421875 C 269.550781 192.582031 272.847656 194.3125 276.359375 195.589844 L 276.359375 205.304688 C 276.359375 209.382812 279.675781 212.703125 283.765625 212.703125 L 300.328125 212.703125 C 304.417969 212.703125 307.742188 209.382812 307.742188 205.304688 L 307.742188 194.324219 C 311.136719 192.773438 314.273438 190.796875 317.121094 188.40625 L 325.527344 193.261719 C 326.644531 193.914062 327.921875 194.257812 329.210938 194.257812 C 331.867188 194.257812 334.335938 192.824219 335.644531 190.539062 L 343.933594 176.191406 C 344.933594 174.457031 345.191406 172.433594 344.65625 170.503906 C 344.136719 168.597656 342.898438 167.019531 341.234375 166.085938 L 331.742188 160.570312 C 331.878906 159.207031 331.953125 157.917969 331.953125 156.679688 C 331.953125 154.332031 331.730469 151.921875 331.289062 149.488281 L 339.707031 144.644531 C 343.246094 142.585938 344.457031 138.03125 342.410156 134.5 L 334.128906 120.136719 C 332.140625 116.71875 327.300781 115.511719 324.019531 117.445312 L 314.535156 122.910156 C 311.492188 120.742188 308.207031 119.011719 304.707031 117.742188 L 304.707031 108.035156 C 304.707031 103.945312 301.378906 100.617188 297.292969 100.617188 L 280.71875 100.617188 C 276.640625 100.617188 273.332031 103.945312 273.332031 108.035156 L 273.332031 119 C 269.949219 120.546875 266.804688 122.53125 263.945312 124.933594 L 255.53125 120.078125 C 252.109375 118.105469 247.375 119.386719 245.402344 122.792969 L 237.132812 137.132812 C 236.140625 138.855469 235.875 140.859375 236.390625 142.765625 C 236.894531 144.679688 238.132812 146.28125 239.84375 147.261719 Z M 243.230469 140.644531 L 251.5 126.3125 L 252.011719 126.183594 L 262.636719 132.308594 C 263.984375 133.089844 265.675781 132.886719 266.828125 131.808594 C 270.136719 128.648438 273.976562 126.21875 278.230469 124.582031 C 279.828125 123.96875 280.753906 122.304688 280.433594 120.625 L 280.378906 108.035156 C 280.378906 107.839844 280.542969 107.660156 280.722656 107.660156 L 297.296875 107.660156 C 297.5 107.660156 297.671875 107.835938 297.671875 108.035156 L 297.671875 120.296875 C 297.671875 121.863281 298.710938 123.242188 300.203125 123.679688 C 304.585938 124.953125 308.597656 127.058594 312.15625 129.9375 C 313.375 130.925781 315.347656 130.71875 316.667969 129.800781 L 327.535156 123.550781 C 327.582031 123.550781 328.027344 123.675781 328.039062 123.667969 L 336.316406 138.019531 C 336.425781 138.214844 336.363281 138.4375 336.191406 138.546875 L 325.574219 144.65625 C 324.21875 145.4375 323.539062 147.015625 323.90625 148.53125 C 324.578125 151.3125 324.917969 154.054688 324.917969 156.679688 C 324.917969 158.292969 324.761719 160.046875 324.457031 162.027344 C 324.199219 163.691406 325.140625 165.300781 326.71875 165.875 L 337.703125 172.175781 C 337.71875 172.1875 337.820312 172.664062 337.839844 172.667969 L 329.550781 187.007812 C 329.550781 187.015625 329.054688 187.160156 329.054688 187.167969 L 318.429688 181.027344 C 317.082031 180.253906 315.378906 180.445312 314.238281 181.527344 C 310.949219 184.671875 307.105469 187.097656 302.835938 188.734375 C 301.25 189.351562 300.324219 191 300.632812 192.671875 C 300.652344 192.765625 300.671875 192.847656 300.699219 192.949219 L 300.699219 205.296875 C 300.699219 205.5 300.535156 205.65625 300.324219 205.65625 L 283.761719 205.65625 C 283.558594 205.65625 283.394531 205.492188 283.394531 205.296875 L 283.394531 193.042969 C 283.394531 191.476562 282.359375 190.101562 280.863281 189.660156 C 276.460938 188.367188 272.441406 186.253906 268.902344 183.394531 C 268.25 182.875 267.46875 182.609375 266.683594 182.609375 C 265.894531 182.609375 265.09375 182.882812 264.441406 183.414062 C 264.367188 183.480469 264.289062 183.539062 264.214844 183.621094 L 253.515625 189.785156 C 253.480469 189.785156 253.046875 189.660156 253.023438 189.660156 L 244.734375 175.300781 C 244.636719 175.125 244.699219 174.898438 244.851562 174.804688 L 255.488281 168.675781 C 256.835938 167.898438 257.515625 166.320312 257.152344 164.804688 C 256.472656 162 256.144531 159.339844 256.144531 156.683594 C 256.144531 155.007812 256.300781 153.253906 256.613281 151.324219 C 256.882812 149.664062 255.933594 148.046875 254.367188 147.460938 C 254.257812 147.421875 254.15625 147.386719 254.039062 147.351562 L 243.351562 141.164062 C 243.199219 141.070312 243.144531 140.792969 243.230469 140.644531 Z M 243.230469 140.644531 "/>
<path style=" stroke:none;fill-rule:nonzero;fill:rgb(100%,100%,100%);fill-opacity:1;" d="M 290.527344 178.304688 C 302.453125 178.304688 312.152344 168.601562 312.152344 156.679688 C 312.152344 144.746094 302.453125 135.042969 290.527344 135.042969 C 278.601562 135.042969 268.90625 144.75 268.90625 156.679688 C 268.90625 168.601562 278.601562 178.304688 290.527344 178.304688 Z M 290.527344 142.082031 C 298.570312 142.082031 305.109375 148.628906 305.109375 156.675781 C 305.109375 164.714844 298.5625 171.253906 290.527344 171.253906 C 282.492188 171.253906 275.945312 164.714844 275.945312 156.675781 C 275.945312 148.632812 282.488281 142.082031 290.527344 142.082031 Z M 290.527344 142.082031 "/>
<path style=" stroke:none;fill-rule:nonzero;fill:rgb(100%,100%,100%);fill-opacity:1;" d="M 222.109375 56.871094 L 244.46875 56.871094 L 244.46875 63.914062 L 222.109375 63.914062 Z M 222.109375 56.871094 "/>
<path style=" stroke:none;fill-rule:nonzero;fill:rgb(100%,100%,100%);fill-opacity:1;" d="M 129.054688 56.871094 L 207.625 56.871094 L 207.625 63.914062 L 129.054688 63.914062 Z M 129.054688 56.871094 "/>
<path style=" stroke:none;fill-rule:nonzero;fill:rgb(100%,100%,100%);fill-opacity:1;" d="M 155.441406 155.269531 L 161.730469 141.816406 L 180.03125 147.160156 L 177.8125 163.835938 C 177.625 165.246094 178.300781 166.628906 179.527344 167.34375 C 183.050781 169.402344 186.515625 171.816406 189.824219 174.515625 C 191.042969 175.503906 192.769531 175.578125 194.0625 174.675781 L 206.699219 165.859375 L 219.875 179.660156 L 209.421875 193.246094 C 208.550781 194.375 208.453125 195.910156 209.15625 197.152344 C 211.097656 200.542969 212.878906 204.292969 214.453125 208.304688 C 215.023438 209.753906 216.414062 210.652344 218.03125 210.53125 L 233.613281 209.207031 L 238.121094 227.742188 L 231.707031 230.386719 L 234.390625 236.898438 L 243.605469 233.09375 C 245.21875 232.421875 246.097656 230.679688 245.683594 228.996094 L 239.734375 204.59375 C 239.320312 202.914062 237.722656 201.789062 236.011719 201.929688 L 220.007812 203.292969 C 218.890625 200.648438 217.6875 198.109375 216.402344 195.714844 L 227.28125 181.570312 C 228.347656 180.191406 228.234375 178.25 227.042969 176.988281 L 209.699219 158.8125 C 208.507812 157.550781 206.566406 157.371094 205.140625 158.355469 L 192.175781 167.398438 C 189.867188 165.625 187.492188 163.976562 185.082031 162.480469 L 187.390625 145.101562 C 187.621094 143.378906 186.5625 141.75 184.898438 141.261719 L 160.777344 134.21875 C 159.113281 133.734375 157.34375 134.535156 156.609375 136.109375 L 150.148438 149.925781 C 148.789062 149.757812 147.429688 149.621094 146.054688 149.527344 L 145.558594 156.550781 C 147.617188 156.699219 149.644531 156.9375 151.675781 157.261719 C 153.277344 157.519531 154.777344 156.6875 155.441406 155.269531 Z M 155.441406 155.269531 "/>
<path style=" stroke:none;fill-rule:nonzero;fill:rgb(100%,100%,100%);fill-opacity:1;" d="M 161.800781 186.726562 C 165.238281 188.304688 168.546875 190.242188 171.628906 192.496094 L 175.78125 186.808594 C 172.320312 184.277344 168.605469 182.09375 164.726562 180.324219 Z M 161.800781 186.726562 "/>
<path style=" stroke:none;fill-rule:nonzero;fill:rgb(100%,100%,100%);fill-opacity:1;" d="M 193.183594 225.117188 C 193.808594 227.785156 194.234375 230.667969 194.480469 233.910156 L 201.5 233.371094 C 201.222656 229.761719 200.75 226.539062 200.039062 223.515625 Z M 193.183594 225.117188 "/>
<path style=" stroke:none;fill-rule:nonzero;fill:rgb(100%,100%,100%);fill-opacity:1;" d="M 180.753906 190.851562 L 176.042969 196.09375 C 178.867188 198.632812 181.4375 201.472656 183.695312 204.53125 L 189.359375 200.347656 C 186.824219 196.910156 183.929688 193.710938 180.753906 190.851562 Z M 180.753906 190.851562 "/>
<path style=" stroke:none;fill-rule:nonzero;fill:rgb(100%,100%,100%);fill-opacity:1;" d="M 158.753906 177.953125 C 154.683594 176.578125 150.46875 175.617188 146.246094 175.117188 L 145.402344 182.105469 C 149.152344 182.558594 152.886719 183.40625 156.496094 184.625 Z M 158.753906 177.953125 "/>
<path style=" stroke:none;fill-rule:nonzero;fill:rgb(100%,100%,100%);fill-opacity:1;" d="M 192.898438 205.707031 L 186.839844 209.285156 C 188.761719 212.550781 190.367188 216.035156 191.605469 219.636719 L 198.257812 217.347656 C 196.871094 213.292969 195.066406 209.375 192.898438 205.707031 Z M 192.898438 205.707031 "/>
<g clip-path="url(#clip1)" clip-rule="nonzero">
<path style=" stroke:none;fill-rule:nonzero;fill:rgb(100%,100%,100%);fill-opacity:1;" d="M 184.511719 308.417969 C 183.378906 307.535156 181.816406 307.433594 180.574219 308.167969 C 177.066406 310.238281 173.242188 312.085938 168.890625 313.808594 C 167.445312 314.375 166.546875 315.832031 166.679688 317.382812 L 167.941406 332.15625 L 149.410156 336.664062 L 143.144531 321.507812 C 142.597656 320.199219 141.320312 319.339844 139.910156 319.335938 C 135.078125 319.308594 130.863281 318.988281 127.019531 318.355469 C 125.457031 318.085938 123.929688 318.90625 123.257812 320.335938 L 116.964844 333.800781 L 98.664062 328.441406 L 100.871094 311.773438 C 101.058594 310.371094 100.382812 308.996094 99.167969 308.28125 C 95.574219 306.171875 92.101562 303.742188 88.839844 301.078125 C 87.621094 300.070312 85.894531 300.015625 84.601562 300.917969 L 71.980469 309.730469 L 58.816406 295.910156 L 69.273438 282.359375 C 70.140625 281.234375 70.25 279.695312 69.546875 278.457031 C 67.546875 274.96875 65.769531 271.214844 64.253906 267.292969 C 63.6875 265.832031 62.226562 264.898438 60.667969 265.050781 L 45.089844 266.382812 L 40.578125 247.84375 L 56.464844 241.289062 C 57.796875 240.742188 58.667969 239.429688 58.648438 237.988281 C 58.59375 233.785156 58.859375 229.644531 59.441406 225.671875 C 59.667969 224.140625 58.859375 222.636719 57.453125 221.972656 L 43.425781 215.394531 L 48.769531 197.085938 L 65.480469 199.316406 C 66.921875 199.527344 68.300781 198.8125 69.007812 197.5625 C 71.210938 193.671875 73.507812 190.226562 76.019531 187.035156 C 76.976562 185.820312 77.027344 184.113281 76.140625 182.839844 L 67.472656 170.40625 L 81.261719 157.226562 L 92.066406 165.546875 L 96.363281 159.964844 L 83.160156 149.800781 C 81.777344 148.726562 79.835938 148.835938 78.578125 150.042969 L 60.425781 167.410156 C 59.179688 168.613281 58.984375 170.542969 59.976562 171.964844 L 68.894531 184.761719 C 67.210938 187.039062 65.621094 189.4375 64.078125 192.023438 L 46.703125 189.699219 C 44.996094 189.472656 43.351562 190.535156 42.863281 192.195312 L 35.824219 216.3125 C 35.332031 217.972656 36.125 219.753906 37.703125 220.496094 L 52.136719 227.265625 C 51.828125 230.023438 51.652344 232.835938 51.609375 235.683594 L 35.101562 242.492188 C 33.496094 243.160156 32.613281 244.890625 33.027344 246.578125 L 38.976562 270.992188 C 39.390625 272.679688 40.976562 273.828125 42.691406 273.660156 L 58.675781 272.292969 C 59.773438 274.914062 60.984375 277.453125 62.289062 279.886719 L 51.410156 294.003906 C 50.347656 295.378906 50.449219 297.324219 51.652344 298.585938 L 68.984375 316.785156 C 70.179688 318.039062 72.109375 318.230469 73.539062 317.242188 L 86.492188 308.195312 C 88.785156 309.964844 91.167969 311.621094 93.609375 313.140625 L 91.308594 330.511719 C 91.078125 332.234375 92.144531 333.871094 93.804688 334.355469 L 117.921875 341.40625 C 119.585938 341.894531 121.355469 341.085938 122.09375 339.519531 L 128.550781 325.699219 C 131.359375 326.050781 134.328125 326.265625 137.546875 326.351562 L 144.082031 342.144531 C 144.636719 343.484375 145.941406 344.320312 147.335938 344.320312 C 147.609375 344.320312 147.882812 344.289062 148.160156 344.21875 L 172.570312 338.28125 C 174.25 337.867188 175.386719 336.289062 175.234375 334.558594 L 173.941406 319.359375 C 176.851562 318.125 179.542969 316.824219 182.09375 315.421875 L 195.5625 325.816406 C 196.941406 326.882812 198.894531 326.777344 200.152344 325.558594 L 218.300781 308.207031 C 219.570312 307.003906 219.761719 305.0625 218.773438 303.636719 L 209.855469 290.839844 C 211.941406 287.988281 213.933594 284.882812 215.777344 281.601562 L 209.644531 278.148438 C 207.515625 281.945312 205.1875 285.453125 202.738281 288.574219 C 201.777344 289.796875 201.730469 291.492188 202.621094 292.769531 L 211.265625 305.179688 L 197.464844 318.386719 Z M 184.511719 308.417969 "/>
</g>
<path style=" stroke:none;fill-rule:nonzero;fill:rgb(100%,100%,100%);fill-opacity:1;" d="M 152.617188 292.394531 C 122.976562 299.601562 92.914062 280.972656 85.601562 250.898438 C 81.359375 233.40625 85.476562 215.433594 96.910156 201.582031 L 91.484375 197.097656 C 78.8125 212.449219 74.050781 233.183594 78.765625 252.566406 C 85.792969 281.488281 111.550781 300.988281 139.742188 300.988281 C 144.542969 300.988281 149.421875 300.425781 154.285156 299.242188 C 165.441406 296.515625 175.636719 290.675781 183.757812 282.34375 L 178.726562 277.421875 C 171.515625 284.800781 162.484375 289.980469 152.617188 292.394531 Z M 152.617188 292.394531 "/>
<path style=" stroke:none;fill-rule:nonzero;fill:rgb(100%,100%,100%);fill-opacity:1;" d="M 56.300781 105.660156 L 98.648438 105.660156 L 98.648438 112.703125 L 56.300781 112.703125 Z M 56.300781 105.660156 "/>
<path style=" stroke:none;fill-rule:nonzero;fill:rgb(100%,100%,100%);fill-opacity:1;" d="M 29.023438 105.660156 L 47.125 105.660156 L 47.125 112.703125 L 29.023438 112.703125 Z M 29.023438 105.660156 "/>
<path style=" stroke:none;fill-rule:nonzero;fill:rgb(100%,100%,100%);fill-opacity:1;" d="M 0.226562 123.523438 L 98.65625 123.523438 L 98.65625 130.566406 L 0.226562 130.566406 Z M 0.226562 123.523438 "/>
<path style=" stroke:none;fill-rule:nonzero;fill:rgb(100%,100%,100%);fill-opacity:1;" d="M 36.429688 86.386719 L 45.519531 86.386719 L 45.519531 93.429688 L 36.429688 93.429688 Z M 36.429688 86.386719 "/>
<path style=" stroke:none;fill-rule:nonzero;fill:rgb(100%,100%,100%);fill-opacity:1;" d="M 58.097656 86.386719 L 76.972656 86.386719 L 76.972656 93.429688 L 58.097656 93.429688 Z M 58.097656 86.386719 "/>
<path style=" stroke:none;fill-rule:nonzero;fill:rgb(100%,100%,100%);fill-opacity:1;" d="M 89.558594 86.386719 L 98.65625 86.386719 L 98.65625 93.429688 L 89.558594 93.429688 Z M 89.558594 86.386719 "/>
</g>
</svg>
