<?xml version="1.0" encoding="UTF-8"?>
<svg xmlns="http://www.w3.org/2000/svg" xmlns:xlink="http://www.w3.org/1999/xlink" width="375pt" height="374.999991pt" viewBox="0 0 375 374.999991" version="1.2">
<defs>
<clipPath id="clip1">
  <path d="M 259 37.5 L 375 37.5 L 375 118 L 259 118 Z M 259 37.5 "/>
</clipPath>
</defs>
<g id="surface1">
<path style=" stroke:none;fill-rule:nonzero;fill:rgb(100%,100%,100%);fill-opacity:1;" d="M 90.183594 140.542969 C 45.367188 140.542969 0 128.71875 0 106.117188 C 0 83.507812 45.363281 71.679688 90.183594 71.679688 C 134.996094 71.679688 180.363281 83.507812 180.363281 106.117188 C 180.363281 128.71875 134.996094 140.542969 90.183594 140.542969 Z M 90.183594 83.375 C 42.257812 83.375 11.675781 96.839844 11.675781 106.113281 C 11.675781 115.382812 42.257812 128.851562 90.183594 128.851562 C 138.101562 128.851562 168.6875 115.382812 168.6875 106.113281 C 168.6875 96.84375 138.101562 83.375 90.183594 83.375 Z M 90.183594 83.375 "/>
<path style=" stroke:none;fill-rule:nonzero;fill:rgb(100%,100%,100%);fill-opacity:1;" d="M 90.183594 192.503906 C 45.367188 192.503906 0 180.675781 0 158.074219 L 0 106.117188 L 11.675781 106.117188 L 11.675781 158.074219 C 11.675781 167.34375 42.257812 180.808594 90.183594 180.808594 C 138.101562 180.808594 168.6875 167.34375 168.6875 158.074219 L 168.6875 106.117188 L 180.367188 106.117188 L 180.367188 158.074219 C 180.363281 180.675781 134.996094 192.503906 90.183594 192.503906 Z M 90.183594 192.503906 "/>
<path style=" stroke:none;fill-rule:nonzero;fill:rgb(100%,100%,100%);fill-opacity:1;" d="M 90.183594 244.460938 C 45.367188 244.460938 0 232.632812 0 210.03125 L 0 158.074219 L 11.675781 158.074219 L 11.675781 210.03125 C 11.675781 219.300781 42.257812 232.769531 90.183594 232.769531 C 138.101562 232.769531 168.6875 219.300781 168.6875 210.03125 L 168.6875 158.074219 L 180.367188 158.074219 L 180.367188 210.03125 C 180.363281 232.632812 134.996094 244.460938 90.183594 244.460938 Z M 90.183594 244.460938 "/>
<path style=" stroke:none;fill-rule:nonzero;fill:rgb(100%,100%,100%);fill-opacity:1;" d="M 90.183594 296.417969 C 45.367188 296.417969 0 284.59375 0 261.992188 L 0 210.03125 L 11.675781 210.03125 L 11.675781 261.992188 C 11.675781 271.261719 42.257812 284.726562 90.183594 284.726562 C 138.101562 284.726562 168.6875 271.257812 168.6875 261.992188 L 168.6875 210.03125 L 180.367188 210.03125 L 180.367188 261.992188 C 180.363281 284.59375 134.996094 296.417969 90.183594 296.417969 Z M 90.183594 296.417969 "/>
<path style=" stroke:none;fill-rule:nonzero;fill:rgb(100%,100%,100%);fill-opacity:1;" d="M 57.742188 154.835938 L 70.71875 154.835938 L 70.71875 166.527344 L 57.742188 166.527344 Z M 57.742188 154.835938 "/>
<path style=" stroke:none;fill-rule:nonzero;fill:rgb(100%,100%,100%);fill-opacity:1;" d="M 83.695312 154.835938 L 96.667969 154.835938 L 96.667969 166.527344 L 83.695312 166.527344 Z M 83.695312 154.835938 "/>
<path style=" stroke:none;fill-rule:nonzero;fill:rgb(100%,100%,100%);fill-opacity:1;" d="M 109.644531 154.835938 L 122.621094 154.835938 L 122.621094 166.527344 L 109.644531 166.527344 Z M 109.644531 154.835938 "/>
<path style=" stroke:none;fill-rule:nonzero;fill:rgb(100%,100%,100%);fill-opacity:1;" d="M 57.742188 206.792969 L 70.71875 206.792969 L 70.71875 218.488281 L 57.742188 218.488281 Z M 57.742188 206.792969 "/>
<path style=" stroke:none;fill-rule:nonzero;fill:rgb(100%,100%,100%);fill-opacity:1;" d="M 83.695312 206.792969 L 96.667969 206.792969 L 96.667969 218.488281 L 83.695312 218.488281 Z M 83.695312 206.792969 "/>
<path style=" stroke:none;fill-rule:nonzero;fill:rgb(100%,100%,100%);fill-opacity:1;" d="M 109.644531 206.792969 L 122.621094 206.792969 L 122.621094 218.488281 L 109.644531 218.488281 Z M 109.644531 206.792969 "/>
<path style=" stroke:none;fill-rule:nonzero;fill:rgb(100%,100%,100%);fill-opacity:1;" d="M 57.742188 258.753906 L 70.71875 258.753906 L 70.71875 270.445312 L 57.742188 270.445312 Z M 57.742188 258.753906 "/>
<path style=" stroke:none;fill-rule:nonzero;fill:rgb(100%,100%,100%);fill-opacity:1;" d="M 83.695312 258.753906 L 96.667969 258.753906 L 96.667969 270.445312 L 83.695312 270.445312 Z M 83.695312 258.753906 "/>
<path style=" stroke:none;fill-rule:nonzero;fill:rgb(100%,100%,100%);fill-opacity:1;" d="M 109.644531 258.753906 L 122.621094 258.753906 L 122.621094 270.445312 L 109.644531 270.445312 Z M 109.644531 258.753906 "/>
<path style=" stroke:none;fill-rule:nonzero;fill:rgb(100%,100%,100%);fill-opacity:1;" d="M 193.988281 232.796875 L 219.9375 232.796875 L 219.9375 244.492188 L 193.988281 244.492188 Z M 193.988281 232.796875 "/>
<path style=" stroke:none;fill-rule:nonzero;fill:rgb(100%,100%,100%);fill-opacity:1;" d="M 193.988281 128.851562 L 219.9375 128.851562 L 219.9375 140.542969 L 193.988281 140.542969 Z M 193.988281 128.851562 "/>
<path style=" stroke:none;fill-rule:nonzero;fill:rgb(100%,100%,100%);fill-opacity:1;" d="M 219.9375 180.824219 L 245.890625 180.824219 L 245.890625 192.515625 L 219.9375 192.515625 Z M 219.9375 180.824219 "/>
<path style=" stroke:none;fill-rule:nonzero;fill:rgb(100%,100%,100%);fill-opacity:1;" d="M 245.890625 301.664062 L 214.101562 301.664062 L 214.101562 71.679688 L 245.890625 71.679688 L 245.890625 83.375 L 225.777344 83.375 L 225.777344 289.96875 L 245.890625 289.96875 Z M 245.890625 301.664062 "/>
<path style=" stroke:none;fill-rule:nonzero;fill:rgb(100%,100%,100%);fill-opacity:1;" d="M 284.816406 71.679688 L 297.792969 71.679688 L 297.792969 83.375 L 284.816406 83.375 Z M 284.816406 71.679688 "/>
<path style=" stroke:none;fill-rule:nonzero;fill:rgb(100%,100%,100%);fill-opacity:1;" d="M 310.769531 71.679688 L 323.746094 71.679688 L 323.746094 83.375 L 310.769531 83.375 Z M 310.769531 71.679688 "/>
<path style=" stroke:none;fill-rule:nonzero;fill:rgb(100%,100%,100%);fill-opacity:1;" d="M 336.722656 71.679688 L 369.160156 71.679688 L 369.160156 83.375 L 336.722656 83.375 Z M 336.722656 71.679688 "/>
<g clip-path="url(#clip1)" clip-rule="nonzero">
<path style=" stroke:none;fill-rule:nonzero;fill:rgb(100%,100%,100%);fill-opacity:1;" d="M 362.671875 117.15625 L 271.84375 117.15625 C 268.546875 117.15625 265.453125 115.871094 263.125 113.542969 C 260.800781 111.210938 259.515625 108.113281 259.515625 104.816406 L 259.515625 50.238281 C 259.515625 46.941406 260.800781 43.84375 263.125 41.511719 C 265.457031 39.179688 268.550781 37.894531 271.84375 37.894531 L 362.671875 37.894531 C 365.964844 37.894531 369.058594 39.179688 371.386719 41.511719 C 373.71875 43.84375 375 46.941406 375 50.238281 L 375 104.816406 C 375 108.109375 373.71875 111.207031 371.386719 113.539062 C 369.066406 115.871094 365.96875 117.15625 362.671875 117.15625 Z M 271.839844 49.589844 C 271.664062 49.589844 271.507812 49.652344 271.378906 49.78125 C 271.222656 49.9375 271.191406 50.117188 271.191406 50.238281 L 271.191406 104.816406 C 271.191406 104.9375 271.222656 105.117188 271.378906 105.277344 C 271.507812 105.398438 271.660156 105.460938 271.839844 105.460938 L 362.671875 105.460938 C 362.855469 105.460938 363.007812 105.398438 363.128906 105.277344 C 363.285156 105.117188 363.320312 104.9375 363.320312 104.816406 L 363.320312 50.238281 C 363.320312 50.117188 363.285156 49.9375 363.128906 49.777344 C 363 49.648438 362.851562 49.585938 362.671875 49.585938 L 271.839844 49.585938 Z M 271.839844 49.589844 "/>
</g>
<path style=" stroke:none;fill-rule:nonzero;fill:rgb(100%,100%,100%);fill-opacity:1;" d="M 284.816406 180.808594 L 297.792969 180.808594 L 297.792969 192.503906 L 284.816406 192.503906 Z M 284.816406 180.808594 "/>
<path style=" stroke:none;fill-rule:nonzero;fill:rgb(100%,100%,100%);fill-opacity:1;" d="M 310.769531 180.808594 L 323.746094 180.808594 L 323.746094 192.503906 L 310.769531 192.503906 Z M 310.769531 180.808594 "/>
<path style=" stroke:none;fill-rule:nonzero;fill:rgb(100%,100%,100%);fill-opacity:1;" d="M 336.722656 180.808594 L 369.160156 180.808594 L 369.160156 192.503906 L 336.722656 192.503906 Z M 336.722656 180.808594 "/>
<path style=" stroke:none;fill-rule:nonzero;fill:rgb(100%,100%,100%);fill-opacity:1;" d="M 362.671875 226.289062 L 271.84375 226.289062 C 268.546875 226.289062 265.457031 225 263.125 222.667969 C 260.800781 220.335938 259.515625 217.238281 259.515625 213.945312 L 259.515625 159.371094 C 259.515625 156.074219 260.800781 152.972656 263.125 150.640625 C 265.46875 148.308594 268.558594 147.023438 271.84375 147.023438 L 362.671875 147.023438 C 365.957031 147.023438 369.046875 148.308594 371.382812 150.632812 C 373.71875 152.972656 375 156.074219 375 159.371094 L 375 213.945312 C 375 217.238281 373.71875 220.335938 371.390625 222.667969 C 369.058594 225.003906 365.964844 226.289062 362.671875 226.289062 Z M 271.839844 158.71875 C 271.722656 158.71875 271.539062 158.753906 271.375 158.914062 C 271.257812 159.03125 271.191406 159.191406 271.191406 159.371094 L 271.191406 213.945312 C 271.191406 214.066406 271.222656 214.246094 271.378906 214.402344 C 271.507812 214.527344 271.664062 214.59375 271.839844 214.59375 L 362.671875 214.59375 C 362.851562 214.59375 363 214.53125 363.128906 214.402344 C 363.285156 214.246094 363.320312 214.066406 363.320312 213.945312 L 363.320312 159.371094 C 363.320312 159.191406 363.253906 159.035156 363.128906 158.90625 C 362.96875 158.75 362.792969 158.714844 362.671875 158.714844 L 271.839844 158.714844 Z M 271.839844 158.71875 "/>
<path style=" stroke:none;fill-rule:nonzero;fill:rgb(100%,100%,100%);fill-opacity:1;" d="M 284.816406 289.9375 L 297.792969 289.9375 L 297.792969 301.632812 L 284.816406 301.632812 Z M 284.816406 289.9375 "/>
<path style=" stroke:none;fill-rule:nonzero;fill:rgb(100%,100%,100%);fill-opacity:1;" d="M 310.769531 289.9375 L 323.746094 289.9375 L 323.746094 301.632812 L 310.769531 301.632812 Z M 310.769531 289.9375 "/>
<path style=" stroke:none;fill-rule:nonzero;fill:rgb(100%,100%,100%);fill-opacity:1;" d="M 336.722656 289.9375 L 369.160156 289.9375 L 369.160156 301.632812 L 336.722656 301.632812 Z M 336.722656 289.9375 "/>
<path style=" stroke:none;fill-rule:nonzero;fill:rgb(100%,100%,100%);fill-opacity:1;" d="M 362.671875 335.417969 L 271.84375 335.417969 C 268.558594 335.417969 265.460938 334.136719 263.136719 331.8125 C 260.792969 329.464844 259.515625 326.367188 259.515625 323.074219 L 259.515625 268.5 C 259.515625 265.203125 260.796875 262.105469 263.125 259.777344 C 265.453125 257.445312 268.546875 256.160156 271.839844 256.160156 L 362.671875 256.160156 C 365.960938 256.160156 369.058594 257.445312 371.386719 259.777344 C 373.714844 262.105469 375 265.207031 375 268.5 L 375 323.074219 C 375 326.367188 373.714844 329.464844 371.394531 331.796875 C 369.046875 334.136719 365.957031 335.417969 362.671875 335.417969 Z M 271.839844 267.851562 C 271.664062 267.851562 271.507812 267.914062 271.378906 268.042969 C 271.261719 268.167969 271.191406 268.324219 271.191406 268.5 L 271.191406 323.074219 C 271.191406 323.253906 271.257812 323.414062 271.390625 323.546875 C 271.5 323.660156 271.660156 323.722656 271.839844 323.722656 L 362.671875 323.722656 C 362.847656 323.722656 363.003906 323.660156 363.136719 323.53125 C 363.253906 323.414062 363.320312 323.253906 363.320312 323.074219 L 363.320312 268.5 C 363.320312 268.324219 363.253906 268.167969 363.125 268.042969 C 363 267.917969 362.847656 267.851562 362.671875 267.851562 Z M 271.839844 267.851562 "/>
</g>
</svg>
