<?xml version="1.0" encoding="UTF-8"?>
<svg xmlns="http://www.w3.org/2000/svg" xmlns:xlink="http://www.w3.org/1999/xlink" width="375pt" height="374.999991pt" viewBox="0 0 375 374.999991" version="1.2">
<defs>
<clipPath id="clip1">
  <path d="M 0 42.65625 L 375 42.65625 L 375 332.15625 L 0 332.15625 Z M 0 42.65625 "/>
</clipPath>
</defs>
<g id="surface1">
<g clip-path="url(#clip1)" clip-rule="nonzero">
<path style=" stroke:none;fill-rule:nonzero;fill:rgb(100%,100%,100%);fill-opacity:1;" d="M 363.066406 42.65625 L 11.933594 42.65625 C 5.492188 42.65625 0.226562 47.917969 0.226562 54.351562 L 0.226562 288.292969 C 0.226562 294.726562 5.492188 299.988281 11.933594 299.988281 L 167.015625 299.988281 L 167.015625 326.308594 L 143.609375 326.308594 C 141.992188 326.308594 140.683594 327.617188 140.683594 329.230469 C 140.683594 330.847656 141.992188 332.15625 143.609375 332.15625 L 231.390625 332.15625 C 233.007812 332.15625 234.316406 330.847656 234.316406 329.230469 C 234.316406 327.617188 233.007812 326.308594 231.390625 326.308594 L 207.984375 326.308594 L 207.984375 299.988281 L 363.066406 299.988281 C 369.507812 299.988281 374.773438 294.726562 374.773438 288.292969 L 374.773438 54.351562 C 374.773438 47.917969 369.507812 42.65625 363.066406 42.65625 Z M 202.128906 326.308594 L 172.871094 326.308594 L 172.871094 299.988281 L 202.128906 299.988281 Z M 368.921875 288.292969 C 368.921875 291.515625 366.292969 294.140625 363.066406 294.140625 L 11.933594 294.140625 C 8.707031 294.140625 6.078125 291.515625 6.078125 288.292969 L 6.078125 273.671875 L 368.921875 273.671875 Z M 368.921875 267.824219 L 6.078125 267.824219 L 6.078125 71.898438 L 368.921875 71.898438 Z M 368.921875 66.050781 L 6.078125 66.050781 L 6.078125 54.351562 C 6.078125 51.128906 8.707031 48.503906 11.933594 48.503906 L 363.066406 48.503906 C 366.292969 48.503906 368.921875 51.128906 368.921875 54.351562 Z M 368.921875 66.050781 "/>
</g>
<path style=" stroke:none;fill-rule:nonzero;fill:rgb(100%,100%,100%);fill-opacity:1;" d="M 20.710938 95.292969 L 77.804688 95.292969 C 79.421875 95.292969 80.730469 93.984375 80.730469 92.367188 C 80.730469 90.753906 79.421875 89.445312 77.804688 89.445312 L 20.710938 89.445312 C 19.09375 89.445312 17.785156 90.753906 17.785156 92.367188 C 17.785156 93.984375 19.09375 95.292969 20.710938 95.292969 Z M 20.710938 95.292969 "/>
<path style=" stroke:none;fill-rule:nonzero;fill:rgb(100%,100%,100%);fill-opacity:1;" d="M 47.726562 104.066406 C 47.726562 105.679688 49.035156 106.988281 50.652344 106.988281 L 113.734375 106.988281 C 115.351562 106.988281 116.660156 105.679688 116.660156 104.066406 C 116.660156 102.449219 115.351562 101.140625 113.734375 101.140625 L 50.652344 101.140625 C 49.035156 101.140625 47.726562 102.449219 47.726562 104.066406 Z M 47.726562 104.066406 "/>
<path style=" stroke:none;fill-rule:nonzero;fill:rgb(100%,100%,100%);fill-opacity:1;" d="M 20.710938 118.6875 L 71.613281 118.6875 C 73.230469 118.6875 74.539062 117.378906 74.539062 115.761719 C 74.539062 114.144531 73.230469 112.839844 71.613281 112.839844 L 20.710938 112.839844 C 19.09375 112.839844 17.785156 114.144531 17.785156 115.761719 C 17.785156 117.378906 19.09375 118.6875 20.710938 118.6875 Z M 20.710938 118.6875 "/>
<path style=" stroke:none;fill-rule:nonzero;fill:rgb(100%,100%,100%);fill-opacity:1;" d="M 20.710938 130.382812 L 80.800781 130.382812 C 82.417969 130.382812 83.726562 129.074219 83.726562 127.460938 C 83.726562 125.84375 82.417969 124.535156 80.800781 124.535156 L 20.710938 124.535156 C 19.09375 124.535156 17.785156 125.84375 17.785156 127.460938 C 17.785156 129.074219 19.09375 130.382812 20.710938 130.382812 Z M 20.710938 130.382812 "/>
<path style=" stroke:none;fill-rule:nonzero;fill:rgb(100%,100%,100%);fill-opacity:1;" d="M 41.738281 139.15625 C 41.738281 140.773438 43.046875 142.082031 44.664062 142.082031 L 122.714844 142.082031 C 124.332031 142.082031 125.644531 140.773438 125.644531 139.15625 C 125.644531 137.539062 124.332031 136.230469 122.714844 136.230469 L 44.664062 136.230469 C 43.046875 136.230469 41.738281 137.539062 41.738281 139.15625 Z M 41.738281 139.15625 "/>
<path style=" stroke:none;fill-rule:nonzero;fill:rgb(100%,100%,100%);fill-opacity:1;" d="M 107.746094 147.929688 L 35.679688 147.929688 C 34.0625 147.929688 32.753906 149.238281 32.753906 150.851562 C 32.753906 152.46875 34.0625 153.777344 35.679688 153.777344 L 107.746094 153.777344 C 109.363281 153.777344 110.671875 152.46875 110.671875 150.851562 C 110.671875 149.238281 109.363281 147.929688 107.746094 147.929688 Z M 107.746094 147.929688 "/>
<path style=" stroke:none;fill-rule:nonzero;fill:rgb(100%,100%,100%);fill-opacity:1;" d="M 20.710938 165.472656 L 92.570312 165.472656 C 94.1875 165.472656 95.5 164.167969 95.5 162.550781 C 95.5 160.933594 94.1875 159.625 92.570312 159.625 L 20.710938 159.625 C 19.09375 159.625 17.785156 160.933594 17.785156 162.550781 C 17.785156 164.167969 19.09375 165.472656 20.710938 165.472656 Z M 20.710938 165.472656 "/>
<path style=" stroke:none;fill-rule:nonzero;fill:rgb(100%,100%,100%);fill-opacity:1;" d="M 56.710938 174.246094 C 56.710938 175.863281 58.019531 177.171875 59.636719 177.171875 L 110.742188 177.171875 C 112.359375 177.171875 113.667969 175.863281 113.667969 174.246094 C 113.667969 172.632812 112.359375 171.324219 110.742188 171.324219 L 59.636719 171.324219 C 58.019531 171.324219 56.710938 172.632812 56.710938 174.246094 Z M 56.710938 174.246094 "/>
<path style=" stroke:none;fill-rule:nonzero;fill:rgb(100%,100%,100%);fill-opacity:1;" d="M 62.628906 188.867188 L 92.570312 188.867188 C 94.1875 188.867188 95.5 187.558594 95.5 185.945312 C 95.5 184.328125 94.1875 183.019531 92.570312 183.019531 L 62.628906 183.019531 C 61.011719 183.019531 59.703125 184.328125 59.703125 185.945312 C 59.703125 187.558594 61.011719 188.867188 62.628906 188.867188 Z M 62.628906 188.867188 "/>
<path style=" stroke:none;fill-rule:nonzero;fill:rgb(100%,100%,100%);fill-opacity:1;" d="M 20.710938 200.566406 L 92.570312 200.566406 C 94.1875 200.566406 95.5 199.257812 95.5 197.640625 C 95.5 196.023438 94.1875 194.71875 92.570312 194.71875 L 20.710938 194.71875 C 19.09375 194.71875 17.785156 196.023438 17.785156 197.640625 C 17.785156 199.257812 19.09375 200.566406 20.710938 200.566406 Z M 20.710938 200.566406 "/>
<path style=" stroke:none;fill-rule:nonzero;fill:rgb(100%,100%,100%);fill-opacity:1;" d="M 20.710938 212.261719 L 89.578125 212.261719 C 91.195312 212.261719 92.503906 210.953125 92.503906 209.339844 C 92.503906 207.722656 91.195312 206.414062 89.578125 206.414062 L 20.710938 206.414062 C 19.09375 206.414062 17.785156 207.722656 17.785156 209.339844 C 17.785156 210.953125 19.09375 212.261719 20.710938 212.261719 Z M 20.710938 212.261719 "/>
<path style=" stroke:none;fill-rule:nonzero;fill:rgb(100%,100%,100%);fill-opacity:1;" d="M 140.683594 218.109375 L 77.597656 218.109375 C 75.980469 218.109375 74.671875 219.417969 74.671875 221.035156 C 74.671875 222.652344 75.980469 223.960938 77.597656 223.960938 L 140.683594 223.960938 C 142.300781 223.960938 143.609375 222.652344 143.609375 221.035156 C 143.609375 219.417969 142.300781 218.109375 140.683594 218.109375 Z M 140.683594 218.109375 "/>
<path style=" stroke:none;fill-rule:nonzero;fill:rgb(100%,100%,100%);fill-opacity:1;" d="M 20.710938 235.65625 L 92.570312 235.65625 C 94.1875 235.65625 95.5 234.347656 95.5 232.730469 C 95.5 231.117188 94.1875 229.808594 92.570312 229.808594 L 20.710938 229.808594 C 19.09375 229.808594 17.785156 231.117188 17.785156 232.730469 C 17.785156 234.347656 19.09375 235.65625 20.710938 235.65625 Z M 20.710938 235.65625 "/>
<path style=" stroke:none;fill-rule:nonzero;fill:rgb(100%,100%,100%);fill-opacity:1;" d="M 131.699219 241.503906 L 68.617188 241.503906 C 67 241.503906 65.691406 242.8125 65.691406 244.429688 C 65.691406 246.046875 67 247.351562 68.617188 247.351562 L 131.699219 247.351562 C 133.316406 247.351562 134.625 246.046875 134.625 244.429688 C 134.625 242.8125 133.316406 241.503906 131.699219 241.503906 Z M 131.699219 241.503906 "/>
<path style=" stroke:none;fill-rule:nonzero;fill:rgb(100%,100%,100%);fill-opacity:1;" d="M 288.417969 95.292969 L 354.289062 95.292969 C 355.90625 95.292969 357.214844 93.984375 357.214844 92.367188 C 357.214844 90.753906 355.90625 89.445312 354.289062 89.445312 L 288.417969 89.445312 C 286.800781 89.445312 285.492188 90.753906 285.492188 92.367188 C 285.492188 93.984375 286.800781 95.292969 288.417969 95.292969 Z M 288.417969 95.292969 "/>
<path style=" stroke:none;fill-rule:nonzero;fill:rgb(100%,100%,100%);fill-opacity:1;" d="M 261.265625 106.988281 L 324.347656 106.988281 C 325.964844 106.988281 327.273438 105.679688 327.273438 104.066406 C 327.273438 102.449219 325.964844 101.140625 324.347656 101.140625 L 261.265625 101.140625 C 259.648438 101.140625 258.339844 102.449219 258.339844 104.066406 C 258.339844 105.679688 259.648438 106.988281 261.265625 106.988281 Z M 261.265625 106.988281 "/>
<path style=" stroke:none;fill-rule:nonzero;fill:rgb(100%,100%,100%);fill-opacity:1;" d="M 354.289062 112.839844 L 303.386719 112.839844 C 301.769531 112.839844 300.460938 114.144531 300.460938 115.761719 C 300.460938 117.378906 301.769531 118.6875 303.386719 118.6875 L 354.289062 118.6875 C 355.90625 118.6875 357.214844 117.378906 357.214844 115.761719 C 357.214844 114.144531 355.90625 112.839844 354.289062 112.839844 Z M 354.289062 112.839844 "/>
<path style=" stroke:none;fill-rule:nonzero;fill:rgb(100%,100%,100%);fill-opacity:1;" d="M 354.289062 124.535156 L 285.421875 124.535156 C 283.804688 124.535156 282.496094 125.84375 282.496094 127.460938 C 282.496094 129.074219 283.804688 130.382812 285.421875 130.382812 L 354.289062 130.382812 C 355.90625 130.382812 357.214844 129.074219 357.214844 127.460938 C 357.214844 125.84375 355.90625 124.535156 354.289062 124.535156 Z M 354.289062 124.535156 "/>
<path style=" stroke:none;fill-rule:nonzero;fill:rgb(100%,100%,100%);fill-opacity:1;" d="M 252.285156 142.082031 L 330.335938 142.082031 C 331.953125 142.082031 333.261719 140.773438 333.261719 139.15625 C 333.261719 137.539062 331.953125 136.230469 330.335938 136.230469 L 252.285156 136.230469 C 250.667969 136.230469 249.355469 137.539062 249.355469 139.15625 C 249.355469 140.773438 250.667969 142.082031 252.285156 142.082031 Z M 252.285156 142.082031 "/>
<path style=" stroke:none;fill-rule:nonzero;fill:rgb(100%,100%,100%);fill-opacity:1;" d="M 339.320312 153.777344 C 340.9375 153.777344 342.246094 152.46875 342.246094 150.851562 C 342.246094 149.238281 340.9375 147.929688 339.320312 147.929688 L 267.253906 147.929688 C 265.636719 147.929688 264.328125 149.238281 264.328125 150.851562 C 264.328125 152.46875 265.636719 153.777344 267.253906 153.777344 Z M 339.320312 153.777344 "/>
<path style=" stroke:none;fill-rule:nonzero;fill:rgb(100%,100%,100%);fill-opacity:1;" d="M 354.289062 159.625 L 282.429688 159.625 C 280.8125 159.625 279.5 160.933594 279.5 162.550781 C 279.5 164.167969 280.8125 165.472656 282.429688 165.472656 L 354.289062 165.472656 C 355.90625 165.472656 357.214844 164.167969 357.214844 162.550781 C 357.214844 160.933594 355.90625 159.625 354.289062 159.625 Z M 354.289062 159.625 "/>
<path style=" stroke:none;fill-rule:nonzero;fill:rgb(100%,100%,100%);fill-opacity:1;" d="M 261.332031 174.246094 C 261.332031 175.863281 262.640625 177.171875 264.257812 177.171875 L 315.363281 177.171875 C 316.980469 177.171875 318.289062 175.863281 318.289062 174.246094 C 318.289062 172.632812 316.980469 171.324219 315.363281 171.324219 L 264.257812 171.324219 C 262.640625 171.324219 261.332031 172.632812 261.332031 174.246094 Z M 261.332031 174.246094 "/>
<path style=" stroke:none;fill-rule:nonzero;fill:rgb(100%,100%,100%);fill-opacity:1;" d="M 282.429688 183.019531 C 280.8125 183.019531 279.5 184.328125 279.5 185.945312 C 279.5 187.558594 280.8125 188.867188 282.429688 188.867188 L 312.371094 188.867188 C 313.988281 188.867188 315.296875 187.558594 315.296875 185.945312 C 315.296875 184.328125 313.988281 183.019531 312.371094 183.019531 Z M 282.429688 183.019531 "/>
<path style=" stroke:none;fill-rule:nonzero;fill:rgb(100%,100%,100%);fill-opacity:1;" d="M 354.289062 194.71875 L 282.429688 194.71875 C 280.8125 194.71875 279.5 196.023438 279.5 197.640625 C 279.5 199.257812 280.8125 200.566406 282.429688 200.566406 L 354.289062 200.566406 C 355.90625 200.566406 357.214844 199.257812 357.214844 197.640625 C 357.214844 196.023438 355.90625 194.71875 354.289062 194.71875 Z M 354.289062 194.71875 "/>
<path style=" stroke:none;fill-rule:nonzero;fill:rgb(100%,100%,100%);fill-opacity:1;" d="M 354.289062 206.414062 L 285.421875 206.414062 C 283.804688 206.414062 282.496094 207.722656 282.496094 209.339844 C 282.496094 210.953125 283.804688 212.261719 285.421875 212.261719 L 354.289062 212.261719 C 355.90625 212.261719 357.214844 210.953125 357.214844 209.339844 C 357.214844 207.722656 355.90625 206.414062 354.289062 206.414062 Z M 354.289062 206.414062 "/>
<path style=" stroke:none;fill-rule:nonzero;fill:rgb(100%,100%,100%);fill-opacity:1;" d="M 300.328125 221.035156 C 300.328125 219.417969 299.019531 218.109375 297.402344 218.109375 L 234.316406 218.109375 C 232.699219 218.109375 231.390625 219.417969 231.390625 221.035156 C 231.390625 222.652344 232.699219 223.960938 234.316406 223.960938 L 297.402344 223.960938 C 299.019531 223.960938 300.328125 222.652344 300.328125 221.035156 Z M 300.328125 221.035156 "/>
<path style=" stroke:none;fill-rule:nonzero;fill:rgb(100%,100%,100%);fill-opacity:1;" d="M 354.289062 229.808594 L 282.429688 229.808594 C 280.8125 229.808594 279.5 231.117188 279.5 232.730469 C 279.5 234.347656 280.8125 235.65625 282.429688 235.65625 L 354.289062 235.65625 C 355.90625 235.65625 357.214844 234.347656 357.214844 232.730469 C 357.214844 231.117188 355.90625 229.808594 354.289062 229.808594 Z M 354.289062 229.808594 "/>
<path style=" stroke:none;fill-rule:nonzero;fill:rgb(100%,100%,100%);fill-opacity:1;" d="M 306.382812 241.503906 L 243.300781 241.503906 C 241.683594 241.503906 240.375 242.8125 240.375 244.429688 C 240.375 246.046875 241.683594 247.351562 243.300781 247.351562 L 306.382812 247.351562 C 308 247.351562 309.308594 246.046875 309.308594 244.429688 C 309.308594 242.8125 308 241.503906 306.382812 241.503906 Z M 306.382812 241.503906 "/>
<path style=" stroke:none;fill-rule:nonzero;fill:rgb(100%,100%,100%);fill-opacity:1;" d="M 345.515625 57.277344 C 345.515625 57.664062 345.441406 58.039062 345.292969 58.398438 C 345.144531 58.753906 344.929688 59.070312 344.65625 59.34375 C 344.382812 59.621094 344.066406 59.832031 343.707031 59.980469 C 343.347656 60.128906 342.976562 60.203125 342.589844 60.203125 C 342.199219 60.203125 341.828125 60.128906 341.46875 59.980469 C 341.109375 59.832031 340.792969 59.621094 340.519531 59.34375 C 340.246094 59.070312 340.03125 58.753906 339.882812 58.398438 C 339.734375 58.039062 339.660156 57.664062 339.660156 57.277344 C 339.660156 56.890625 339.734375 56.515625 339.882812 56.160156 C 340.03125 55.800781 340.246094 55.484375 340.519531 55.210938 C 340.792969 54.933594 341.109375 54.722656 341.46875 54.574219 C 341.828125 54.425781 342.199219 54.351562 342.589844 54.351562 C 342.976562 54.351562 343.347656 54.425781 343.707031 54.574219 C 344.066406 54.722656 344.382812 54.933594 344.65625 55.210938 C 344.929688 55.484375 345.144531 55.800781 345.292969 56.160156 C 345.441406 56.515625 345.515625 56.890625 345.515625 57.277344 Z M 345.515625 57.277344 "/>
<path style=" stroke:none;fill-rule:nonzero;fill:rgb(100%,100%,100%);fill-opacity:1;" d="M 333.808594 57.277344 C 333.808594 57.664062 333.734375 58.039062 333.585938 58.398438 C 333.4375 58.753906 333.226562 59.070312 332.953125 59.34375 C 332.679688 59.621094 332.363281 59.832031 332.003906 59.980469 C 331.644531 60.128906 331.273438 60.203125 330.882812 60.203125 C 330.496094 60.203125 330.121094 60.128906 329.765625 59.980469 C 329.40625 59.832031 329.089844 59.621094 328.816406 59.34375 C 328.539062 59.070312 328.328125 58.753906 328.179688 58.398438 C 328.03125 58.039062 327.957031 57.664062 327.957031 57.277344 C 327.957031 56.890625 328.03125 56.515625 328.179688 56.160156 C 328.328125 55.800781 328.539062 55.484375 328.816406 55.210938 C 329.089844 54.933594 329.40625 54.722656 329.765625 54.574219 C 330.121094 54.425781 330.496094 54.351562 330.882812 54.351562 C 331.273438 54.351562 331.644531 54.425781 332.003906 54.574219 C 332.363281 54.722656 332.679688 54.933594 332.953125 55.210938 C 333.226562 55.484375 333.4375 55.800781 333.585938 56.160156 C 333.734375 56.515625 333.808594 56.890625 333.808594 57.277344 Z M 333.808594 57.277344 "/>
<path style=" stroke:none;fill-rule:nonzero;fill:rgb(100%,100%,100%);fill-opacity:1;" d="M 322.105469 57.277344 C 322.105469 57.664062 322.03125 58.039062 321.882812 58.398438 C 321.734375 58.753906 321.523438 59.070312 321.25 59.34375 C 320.972656 59.621094 320.65625 59.832031 320.296875 59.980469 C 319.941406 60.128906 319.566406 60.203125 319.179688 60.203125 C 318.789062 60.203125 318.417969 60.128906 318.058594 59.980469 C 317.699219 59.832031 317.382812 59.621094 317.109375 59.34375 C 316.835938 59.070312 316.625 58.753906 316.476562 58.398438 C 316.328125 58.039062 316.253906 57.664062 316.253906 57.277344 C 316.253906 56.890625 316.328125 56.515625 316.476562 56.160156 C 316.625 55.800781 316.835938 55.484375 317.109375 55.210938 C 317.382812 54.933594 317.699219 54.722656 318.058594 54.574219 C 318.417969 54.425781 318.789062 54.351562 319.179688 54.351562 C 319.566406 54.351562 319.941406 54.425781 320.296875 54.574219 C 320.65625 54.722656 320.972656 54.933594 321.25 55.210938 C 321.523438 55.484375 321.734375 55.800781 321.882812 56.160156 C 322.03125 56.515625 322.105469 56.890625 322.105469 57.277344 Z M 322.105469 57.277344 "/>
<path style=" stroke:none;fill-rule:nonzero;fill:rgb(100%,100%,100%);fill-opacity:1;" d="M 174.972656 203.375 C 175.242188 203.453125 175.511719 203.488281 175.78125 203.488281 C 177.054688 203.488281 178.222656 202.65625 178.589844 201.371094 L 197.042969 137.039062 C 197.488281 135.484375 196.589844 133.863281 195.035156 133.421875 C 193.480469 132.972656 191.859375 133.875 191.417969 135.425781 L 172.964844 199.761719 C 172.519531 201.3125 173.417969 202.933594 174.972656 203.375 Z M 174.972656 203.375 "/>
<path style=" stroke:none;fill-rule:nonzero;fill:rgb(100%,100%,100%);fill-opacity:1;" d="M 136.054688 173.710938 L 162.460938 192.53125 C 162.980469 192.894531 163.570312 193.070312 164.160156 193.070312 C 165.074219 193.070312 165.972656 192.644531 166.546875 191.847656 C 167.484375 190.53125 167.175781 188.707031 165.863281 187.765625 L 142.796875 171.328125 L 165.863281 154.886719 C 167.175781 153.949219 167.484375 152.125 166.546875 150.808594 C 165.609375 149.492188 163.785156 149.195312 162.460938 150.125 L 136.054688 168.945312 C 135.285156 169.5 134.828125 170.382812 134.828125 171.328125 C 134.828125 172.273438 135.285156 173.160156 136.054688 173.710938 Z M 136.054688 173.710938 "/>
<path style=" stroke:none;fill-rule:nonzero;fill:rgb(100%,100%,100%);fill-opacity:1;" d="M 208.453125 191.847656 C 209.027344 192.644531 209.925781 193.070312 210.839844 193.070312 C 211.429688 193.070312 212.019531 192.894531 212.539062 192.53125 L 238.945312 173.710938 C 239.714844 173.160156 240.171875 172.273438 240.171875 171.328125 C 240.171875 170.382812 239.714844 169.5 238.945312 168.945312 L 212.539062 150.125 C 211.21875 149.195312 209.394531 149.492188 208.453125 150.808594 C 207.515625 152.125 207.824219 153.949219 209.136719 154.886719 L 232.203125 171.328125 L 209.136719 187.765625 C 207.824219 188.707031 207.515625 190.53125 208.453125 191.847656 Z M 208.453125 191.847656 "/>
</g>
</svg>
