<?xml version="1.0" encoding="UTF-8"?>
<svg xmlns="http://www.w3.org/2000/svg" xmlns:xlink="http://www.w3.org/1999/xlink" width="375pt" height="374.999991pt" viewBox="0 0 375 374.999991" version="1.2">
<defs>
<clipPath id="clip1">
  <path d="M 0 18.75 L 375 18.75 L 375 356.25 L 0 356.25 Z M 0 18.75 "/>
</clipPath>
</defs>
<g id="surface1">
<path style=" stroke:none;fill-rule:nonzero;fill:rgb(100%,100%,100%);fill-opacity:1;" d="M 181.25 306.25 L 193.75 306.25 L 193.75 293.75 L 181.25 293.75 L 181.25 306.25 "/>
<g clip-path="url(#clip1)" clip-rule="nonzero">
<path style=" stroke:none;fill-rule:nonzero;fill:rgb(100%,100%,100%);fill-opacity:1;" d="M 12.5 318.75 L 128.660156 318.75 L 139.332031 329.417969 C 140.503906 330.589844 142.089844 331.25 143.75 331.25 L 231.25 331.25 C 232.910156 331.25 234.496094 330.589844 235.667969 329.417969 L 246.335938 318.75 L 362.5 318.75 L 362.5 331.25 C 362.5 338.132812 356.882812 343.75 350 343.75 L 25 343.75 C 18.117188 343.75 12.5 338.132812 12.5 331.25 Z M 25 43.75 C 25 36.863281 30.617188 31.25 37.5 31.25 L 337.5 31.25 C 344.382812 31.25 350 36.863281 350 43.75 L 350 306.25 L 243.75 306.25 C 242.089844 306.25 240.503906 306.910156 239.332031 308.082031 L 228.660156 318.75 L 146.335938 318.75 L 135.667969 308.082031 C 134.496094 306.910156 132.910156 306.25 131.25 306.25 L 25 306.25 Z M 25 356.25 L 350 356.25 C 363.792969 356.25 375 345.042969 375 331.25 L 375 312.5 C 375 309.058594 372.191406 306.25 368.75 306.25 L 362.5 306.25 L 362.5 43.75 C 362.5 29.957031 351.292969 18.75 337.5 18.75 L 37.5 18.75 C 23.707031 18.75 12.5 29.957031 12.5 43.75 L 12.5 306.25 L 6.25 306.25 C 2.808594 306.25 0 309.058594 0 312.5 L 0 331.25 C 0 345.042969 11.207031 356.25 25 356.25 "/>
</g>
<path style=" stroke:none;fill-rule:nonzero;fill:rgb(100%,100%,100%);fill-opacity:1;" d="M 75 68.75 L 62.5 68.75 L 62.5 81.25 L 75 81.25 L 75 68.75 "/>
<path style=" stroke:none;fill-rule:nonzero;fill:rgb(100%,100%,100%);fill-opacity:1;" d="M 100 68.75 L 87.5 68.75 L 87.5 81.25 L 100 81.25 L 100 68.75 "/>
<path style=" stroke:none;fill-rule:nonzero;fill:rgb(100%,100%,100%);fill-opacity:1;" d="M 125 68.75 L 112.5 68.75 L 112.5 81.25 L 125 81.25 L 125 68.75 "/>
<path style=" stroke:none;fill-rule:nonzero;fill:rgb(100%,100%,100%);fill-opacity:1;" d="M 118.75 165.722656 L 140.378906 175 L 118.75 184.277344 Z M 109.058594 198.972656 C 110.082031 199.65625 111.304688 200 112.5 200 C 113.328125 200 114.183594 199.828125 114.964844 199.488281 L 158.714844 180.738281 C 161.011719 179.761719 162.5 177.515625 162.5 175 C 162.5 172.484375 161.011719 170.238281 158.714844 169.261719 L 114.964844 150.511719 C 113.035156 149.683594 110.816406 149.878906 109.058594 151.023438 C 107.300781 152.195312 106.25 154.148438 106.25 156.25 L 106.25 193.75 C 106.25 195.847656 107.300781 197.800781 109.058594 198.972656 "/>
<path style=" stroke:none;fill-rule:nonzero;fill:rgb(100%,100%,100%);fill-opacity:1;" d="M 50 256.25 L 50 106.25 L 325 106.25 L 325 256.25 C 325 263.132812 319.382812 268.75 312.5 268.75 L 305.589844 268.75 L 299.949219 218.066406 C 299.609375 214.890625 296.949219 212.5 293.75 212.5 L 293.75 201.464844 L 305.589844 177.808594 C 306.714844 175.535156 306.371094 172.851562 304.734375 170.921875 L 267.234375 127.171875 C 264.867188 124.414062 260.132812 124.414062 257.761719 127.171875 L 220.261719 170.921875 C 218.628906 172.851562 218.285156 175.535156 219.410156 177.808594 L 231.25 201.464844 L 231.25 212.5 C 228.050781 212.5 225.390625 214.890625 225.046875 218.066406 L 219.410156 268.75 L 62.5 268.75 C 55.613281 268.75 50 263.132812 50 256.25 Z M 62.5 56.25 L 312.5 56.25 C 319.382812 56.25 325 61.863281 325 68.75 L 325 93.75 L 50 93.75 L 50 68.75 C 50 61.863281 55.613281 56.25 62.5 56.25 Z M 231.980469 268.75 L 236.839844 225 L 288.160156 225 L 289.550781 237.5 L 250 237.5 L 250 250 L 290.941406 250 L 293.015625 268.75 Z M 243.089844 197.191406 L 232.445312 175.925781 L 262.5 140.84375 L 292.554688 175.925781 L 281.910156 197.191406 C 281.46875 198.070312 281.25 199.023438 281.25 200 L 281.25 212.5 L 268.75 212.5 L 268.75 187.5 L 256.25 187.5 L 256.25 212.5 L 243.75 212.5 L 243.75 200 C 243.75 199.023438 243.53125 198.070312 243.089844 197.191406 Z M 300 281.25 L 312.5 281.25 C 326.292969 281.25 337.5 270.042969 337.5 256.25 L 337.5 68.75 C 337.5 54.957031 326.292969 43.75 312.5 43.75 L 62.5 43.75 C 48.707031 43.75 37.5 54.957031 37.5 68.75 L 37.5 256.25 C 37.5 270.042969 48.707031 281.25 62.5 281.25 L 300 281.25 "/>
<path style=" stroke:none;fill-rule:nonzero;fill:rgb(100%,100%,100%);fill-opacity:1;" d="M 268.75 162.5 L 256.25 162.5 L 256.25 175 L 268.75 175 L 268.75 162.5 "/>
<path style=" stroke:none;fill-rule:nonzero;fill:rgb(100%,100%,100%);fill-opacity:1;" d="M 187.5 212.5 L 81.25 212.5 L 81.25 137.5 L 187.5 137.5 Z M 193.75 125 L 75 125 C 71.558594 125 68.75 127.808594 68.75 131.25 L 68.75 218.75 C 68.75 222.191406 71.558594 225 75 225 L 193.75 225 C 197.191406 225 200 222.191406 200 218.75 L 200 131.25 C 200 127.808594 197.191406 125 193.75 125 "/>
<path style=" stroke:none;fill-rule:nonzero;fill:rgb(100%,100%,100%);fill-opacity:1;" d="M 68.75 250 L 81.25 250 L 81.25 237.5 L 68.75 237.5 L 68.75 250 "/>
<path style=" stroke:none;fill-rule:nonzero;fill:rgb(100%,100%,100%);fill-opacity:1;" d="M 93.75 250 L 200 250 L 200 237.5 L 93.75 237.5 L 93.75 250 "/>
</g>
</svg>
