<?xml version="1.0" encoding="UTF-8"?>
<svg xmlns="http://www.w3.org/2000/svg" xmlns:xlink="http://www.w3.org/1999/xlink" width="375pt" height="374.999991pt" viewBox="0 0 375 374.999991" version="1.2">
<g id="surface1">
<path style=" stroke:none;fill-rule:nonzero;fill:rgb(100%,100%,100%);fill-opacity:1;" d="M 266.128906 96.773438 C 272.792969 96.773438 278.226562 102.207031 278.226562 108.871094 C 278.226562 115.535156 272.792969 120.96875 266.128906 120.96875 C 259.464844 120.96875 254.03125 115.535156 254.03125 108.871094 C 254.03125 102.207031 259.464844 96.773438 266.128906 96.773438 Z M 266.128906 133.066406 C 279.476562 133.066406 290.324219 122.21875 290.324219 108.871094 C 290.324219 95.523438 279.476562 84.675781 266.128906 84.675781 C 252.78125 84.675781 241.933594 95.523438 241.933594 108.871094 C 241.933594 122.21875 252.78125 133.066406 266.128906 133.066406 "/>
<path style=" stroke:none;fill-rule:nonzero;fill:rgb(100%,100%,100%);fill-opacity:1;" d="M 133.066406 193.546875 C 126.402344 193.546875 120.96875 188.113281 120.96875 181.453125 L 108.871094 181.453125 C 108.871094 194.800781 119.714844 205.644531 133.066406 205.644531 C 146.414062 205.644531 157.257812 194.800781 157.257812 181.453125 C 157.257812 168.101562 146.414062 157.257812 133.066406 157.257812 C 126.402344 157.257812 120.96875 151.824219 120.96875 145.160156 C 120.96875 138.5 126.402344 133.066406 133.066406 133.066406 C 139.726562 133.066406 145.160156 138.5 145.160156 145.160156 L 157.257812 145.160156 C 157.257812 131.8125 146.414062 120.96875 133.066406 120.96875 C 119.714844 120.96875 108.871094 131.8125 108.871094 145.160156 C 108.871094 158.511719 119.714844 169.355469 133.066406 169.355469 C 139.726562 169.355469 145.160156 174.789062 145.160156 181.453125 C 145.160156 188.113281 139.726562 193.546875 133.066406 193.546875 "/>
<path style=" stroke:none;fill-rule:nonzero;fill:rgb(100%,100%,100%);fill-opacity:1;" d="M 60.484375 145.160156 C 60.484375 138.5 65.917969 133.066406 72.582031 133.066406 C 79.242188 133.066406 84.675781 138.5 84.675781 145.160156 L 84.675781 181.453125 C 84.675781 188.113281 79.242188 193.546875 72.582031 193.546875 C 65.917969 193.546875 60.484375 188.113281 60.484375 181.453125 Z M 72.582031 205.644531 C 85.929688 205.644531 96.773438 194.800781 96.773438 181.453125 L 96.773438 145.160156 C 96.773438 131.8125 85.929688 120.96875 72.582031 120.96875 C 59.230469 120.96875 48.386719 131.8125 48.386719 145.160156 L 48.386719 181.453125 C 48.386719 194.800781 59.230469 205.644531 72.582031 205.644531 "/>
<path style=" stroke:none;fill-rule:nonzero;fill:rgb(100%,100%,100%);fill-opacity:1;" d="M 314.515625 241.933594 L 12.097656 241.933594 L 12.097656 102.824219 C 12.097656 92.804688 20.222656 84.675781 30.242188 84.675781 L 160.070312 84.675781 C 159.148438 88.648438 158.4375 92.664062 157.96875 96.773438 L 36.289062 96.773438 C 29.628906 96.773438 24.195312 102.207031 24.195312 108.871094 L 24.195312 217.742188 C 24.195312 224.40625 29.628906 229.839844 36.289062 229.839844 L 169.355469 229.839844 C 176.015625 229.839844 181.453125 224.40625 181.453125 217.742188 L 181.453125 177.152344 C 201.414062 201.863281 231.941406 217.742188 266.128906 217.742188 C 283.519531 217.742188 299.914062 213.535156 314.515625 206.257812 Z M 139.113281 266.128906 L 120.96875 266.128906 C 117.636719 266.128906 114.917969 263.410156 114.917969 260.082031 L 114.917969 254.03125 L 139.113281 254.03125 Z M 175.402344 266.128906 L 151.210938 266.128906 L 151.210938 254.03125 L 175.402344 254.03125 Z M 211.695312 254.03125 L 211.695312 260.082031 C 211.695312 263.410156 208.976562 266.128906 205.644531 266.128906 L 187.5 266.128906 L 187.5 254.03125 Z M 296.371094 290.324219 L 30.242188 290.324219 C 20.222656 290.324219 12.097656 282.195312 12.097656 272.175781 L 12.097656 254.03125 L 102.824219 254.03125 L 102.824219 260.082031 C 102.824219 270.097656 110.949219 278.226562 120.96875 278.226562 L 205.644531 278.226562 C 215.664062 278.226562 223.789062 270.097656 223.789062 260.082031 L 223.789062 254.03125 L 314.515625 254.03125 L 314.515625 272.175781 C 314.515625 282.195312 306.386719 290.324219 296.371094 290.324219 Z M 187.5 338.710938 L 139.113281 338.710938 L 139.113281 302.417969 L 187.5 302.417969 Z M 234.46875 326.613281 C 236.761719 326.613281 238.839844 327.890625 239.855469 329.945312 L 244.25 338.710938 L 199.597656 338.710938 L 199.597656 326.613281 Z M 78.628906 362.902344 L 78.628906 350.804688 L 247.984375 350.804688 L 247.984375 362.902344 Z M 92.144531 326.613281 L 127.015625 326.613281 L 127.015625 338.710938 L 82.363281 338.710938 L 86.757812 329.945312 C 87.773438 327.890625 89.851562 326.613281 92.144531 326.613281 Z M 169.355469 158.511719 L 169.355469 217.742188 L 36.289062 217.742188 L 36.289062 108.871094 L 157.257812 108.871094 C 157.257812 126.757812 161.675781 143.601562 169.355469 158.511719 Z M 178.425781 68.234375 L 218.546875 100.316406 C 218.050781 103.105469 217.742188 105.964844 217.742188 108.871094 C 217.742188 135.546875 239.453125 157.257812 266.128906 157.257812 C 269.058594 157.257812 271.894531 156.949219 274.683594 156.453125 L 306.765625 196.574219 C 294.386719 202.335938 280.660156 205.644531 266.128906 205.644531 C 212.757812 205.644531 169.355469 162.242188 169.355469 108.871094 C 169.355469 94.339844 172.664062 80.613281 178.425781 68.234375 Z M 362.902344 108.871094 C 362.902344 123.402344 359.59375 137.128906 353.832031 149.507812 L 313.710938 117.421875 C 314.207031 114.636719 314.515625 111.777344 314.515625 108.871094 C 314.515625 82.195312 292.804688 60.484375 266.128906 60.484375 C 263.199219 60.484375 260.363281 60.789062 257.578125 61.289062 L 225.492188 21.167969 C 237.871094 15.40625 251.597656 12.097656 266.128906 12.097656 C 319.5 12.097656 362.902344 55.5 362.902344 108.871094 Z M 304.308594 138.5 C 306.414062 135.78125 308.230469 132.851562 309.71875 129.734375 L 347.949219 160.304688 C 345.160156 164.722656 342.039062 168.882812 338.589844 172.78125 Z M 266.128906 72.582031 C 286.140625 72.582031 302.417969 88.859375 302.417969 108.871094 C 302.417969 128.882812 286.140625 145.160156 266.128906 145.160156 C 246.117188 145.160156 229.839844 128.882812 229.839844 108.871094 C 229.839844 88.859375 246.117188 72.582031 266.128906 72.582031 Z M 236.5 70.691406 L 202.21875 36.410156 C 206.117188 32.957031 210.277344 29.816406 214.695312 27.050781 L 245.265625 65.28125 C 242.148438 66.769531 239.21875 68.585938 236.5 70.691406 Z M 222.539062 88.007812 L 184.308594 57.4375 C 187.097656 53.019531 190.21875 48.859375 193.667969 44.960938 L 227.949219 79.242188 C 225.847656 81.960938 224.027344 84.890625 222.539062 88.007812 Z M 317.5625 190.691406 L 286.992188 152.460938 C 290.109375 150.972656 293.039062 149.152344 295.757812 147.050781 L 330.039062 181.332031 C 326.140625 184.78125 321.980469 187.925781 317.5625 190.691406 Z M 375 108.871094 C 375 48.835938 326.164062 0 266.128906 0 C 218.828125 0 178.617188 30.359375 163.613281 72.582031 L 30.242188 72.582031 C 13.5625 72.582031 0 86.140625 0 102.824219 L 0 272.175781 C 0 288.859375 13.5625 302.417969 30.242188 302.417969 L 127.015625 302.417969 L 127.015625 314.515625 L 92.144531 314.515625 C 85.246094 314.515625 79.03125 318.367188 75.910156 324.535156 L 66.53125 343.316406 L 66.53125 375 L 260.082031 375 L 260.082031 343.316406 L 250.699219 324.535156 C 247.582031 318.367188 241.367188 314.515625 234.46875 314.515625 L 199.597656 314.515625 L 199.597656 302.417969 L 296.371094 302.417969 C 313.050781 302.417969 326.613281 288.859375 326.613281 272.175781 L 326.613281 199.335938 C 355.769531 179.773438 375 146.53125 375 108.871094 "/>
<path style=" stroke:none;fill-rule:nonzero;fill:rgb(100%,100%,100%);fill-opacity:1;" d="M 338.710938 108.871094 L 350.804688 108.871094 C 350.804688 104.523438 350.476562 100.128906 349.8125 95.851562 L 337.859375 97.695312 C 338.425781 101.382812 338.710938 105.136719 338.710938 108.871094 "/>
<path style=" stroke:none;fill-rule:nonzero;fill:rgb(100%,100%,100%);fill-opacity:1;" d="M 335.214844 86.542969 L 346.71875 82.8125 C 335.402344 47.75 303.011719 24.195312 266.128906 24.195312 L 266.128906 36.289062 C 297.742188 36.289062 325.503906 56.492188 335.214844 86.542969 "/>
</g>
</svg>
