<?xml version="1.0" encoding="UTF-8"?>
<svg xmlns="http://www.w3.org/2000/svg" xmlns:xlink="http://www.w3.org/1999/xlink" width="375pt" height="374.999991pt" viewBox="0 0 375 374.999991" version="1.2">
<defs>
<clipPath id="clip1">
  <path d="M 1 5 L 372 5 L 372 372.75 L 1 372.75 Z M 1 5 "/>
</clipPath>
</defs>
<g id="surface1">
<path style=" stroke:none;fill-rule:nonzero;fill:rgb(100%,100%,100%);fill-opacity:1;" d="M 141.351562 221.867188 L 59.867188 303.398438 C 56.898438 306.367188 56.898438 310.972656 59.867188 313.941406 C 61.351562 315.425781 63.28125 316.167969 65.0625 316.167969 C 66.84375 316.167969 68.921875 315.425781 70.257812 313.941406 L 151.742188 232.410156 C 154.710938 229.441406 154.710938 224.839844 151.742188 221.867188 C 149.070312 218.898438 144.320312 218.898438 141.351562 221.867188 Z M 141.351562 221.867188 "/>
<g clip-path="url(#clip1)" clip-rule="nonzero">
<path style=" stroke:none;fill-rule:nonzero;fill:rgb(100%,100%,100%);fill-opacity:1;" d="M 350.183594 244.292969 C 329.847656 223.945312 299.570312 218.007812 273.152344 228.699219 L 227.585938 183.109375 L 346.472656 64.15625 C 347.660156 62.964844 348.402344 61.332031 348.550781 59.550781 L 351.371094 30 C 351.519531 27.769531 350.777344 25.542969 349.292969 24.058594 C 347.660156 22.425781 345.582031 21.683594 343.355469 21.980469 L 313.820312 24.800781 C 312.039062 24.949219 310.554688 25.691406 309.21875 26.878906 L 190.332031 145.832031 L 148.179688 103.65625 C 158.867188 77.371094 152.929688 46.929688 132.59375 26.582031 C 111.964844 5.941406 80.351562 0 53.632812 11.878906 C 51.410156 12.921875 49.777344 14.851562 49.332031 17.375 C 48.886719 19.898438 49.628906 22.277344 51.410156 24.058594 L 84.0625 56.730469 L 62.09375 78.707031 L 29.441406 46.035156 C 27.660156 44.253906 25.285156 43.511719 22.761719 43.957031 C 20.386719 44.402344 18.308594 46.035156 17.269531 48.265625 C 5.546875 74.847656 11.484375 106.628906 31.964844 127.269531 C 52.300781 147.613281 82.578125 153.554688 108.996094 142.863281 L 135.117188 169 L 3.46875 300.875 C 0.5 303.84375 0.5 308.445312 3.46875 311.417969 L 62.539062 370.523438 C 64.023438 372.007812 65.953125 372.75 67.734375 372.75 C 69.515625 372.75 71.59375 372.007812 72.929688 370.523438 L 204.878906 238.5 L 234.265625 267.90625 C 223.578125 294.191406 229.515625 324.632812 249.847656 344.980469 C 263.355469 358.492188 281.761719 365.769531 300.3125 365.769531 C 309.960938 365.769531 319.757812 363.839844 328.808594 359.828125 C 331.035156 358.789062 332.667969 356.859375 333.113281 354.335938 C 333.558594 351.8125 332.816406 349.433594 331.035156 347.652344 L 298.382812 314.980469 L 320.351562 293.003906 L 353.003906 325.671875 C 354.785156 327.457031 357.160156 328.199219 359.683594 327.753906 C 362.058594 327.308594 364.132812 325.671875 365.171875 323.445312 C 376.75 296.714844 370.8125 264.933594 350.183594 244.292969 Z M 318.125 39.355469 L 336.082031 37.570312 L 334.300781 55.542969 L 217.195312 172.710938 L 201.019531 156.523438 Z M 67.734375 354.632812 L 19.199219 306.070312 L 145.804688 179.394531 L 194.339844 227.957031 Z M 354.933594 306.515625 L 325.542969 277.113281 C 322.578125 274.140625 317.976562 274.140625 315.007812 277.113281 L 282.503906 309.636719 C 281.167969 310.972656 280.277344 312.902344 280.277344 314.832031 C 280.277344 316.761719 281.019531 318.695312 282.503906 320.03125 L 311.890625 349.433594 C 293.484375 353.445312 273.746094 347.800781 260.238281 334.285156 C 243.171875 317.207031 238.867188 291.070312 249.699219 269.390625 C 251.183594 266.566406 250.589844 263.152344 248.363281 260.777344 L 116.121094 128.605469 C 114.636719 127.121094 112.855469 126.378906 110.925781 126.378906 C 109.738281 126.378906 108.699219 126.675781 107.660156 127.121094 C 85.992188 137.960938 60.015625 133.65625 42.800781 116.578125 C 29.292969 103.0625 23.652344 83.3125 27.660156 64.898438 L 57.046875 94.300781 C 60.015625 97.269531 64.617188 97.269531 67.585938 94.300781 L 100.089844 61.777344 C 103.058594 58.808594 103.058594 54.203125 100.089844 51.234375 L 70.703125 21.832031 C 89.109375 17.820312 108.847656 23.464844 122.355469 36.976562 C 139.421875 54.054688 143.726562 80.191406 132.890625 101.875 C 131.40625 104.695312 132 108.113281 134.226562 110.488281 L 266.472656 242.808594 C 268.699219 245.035156 272.113281 245.628906 275.082031 244.144531 C 296.75 233.304688 322.726562 237.609375 339.941406 254.6875 C 353.300781 268.5 358.792969 288.101562 354.933594 306.515625 Z M 354.933594 306.515625 "/>
</g>
</g>
</svg>
